<svg width="258" height="68" viewBox="0 0 258 68" fill="none" xmlns="http://www.w3.org/2000/svg">
<g clip-path="url(#clip0_2131_363)">
<path d="M139.66 67.0933C138.278 66.4879 137.2 65.6689 136.426 64.6307C135.649 63.5953 135.175 62.4575 135.003 61.2174L138.842 59.8779H139.015C139.246 61.3169 139.842 62.4341 140.806 63.2238C141.77 64.0164 142.997 64.4113 144.493 64.4113C145.729 64.4113 146.723 64.1159 147.471 63.5251C148.219 62.9343 148.593 62.1504 148.593 61.1706C148.593 59.6732 147.599 58.667 145.615 58.1464L141.343 57.152C139.675 56.7484 138.325 56.1166 137.288 55.2509C136.251 54.3852 135.733 53.0485 135.733 51.2352C135.733 50.0272 136.078 48.9246 136.768 47.9302C137.457 46.9357 138.422 46.1519 139.658 45.5757C140.893 44.9995 142.29 44.7129 143.842 44.7129C146.141 44.7129 148.049 45.254 149.557 46.3332C151.067 47.4125 152.023 48.831 152.426 50.5859L148.543 51.7529H148.371C148.169 50.6005 147.658 49.7026 146.84 49.0533C146.021 48.404 145.019 48.0823 143.842 48.0823C142.664 48.0823 141.808 48.363 141.101 48.9246C140.397 49.4862 140.043 50.1559 140.043 50.9339C140.043 51.6242 140.289 52.1799 140.777 52.5952C141.265 53.0134 141.957 53.3381 142.848 53.5662L146.688 54.5168C148.701 55.0052 150.246 55.713 151.325 56.6314C152.403 57.5527 152.943 59.0502 152.943 61.1238C152.943 62.4195 152.584 63.5865 151.865 64.6219C151.146 65.6572 150.147 66.4791 148.867 67.0845C147.588 67.69 146.127 67.9912 144.487 67.9912C142.647 67.9912 141.037 67.69 139.655 67.0845L139.66 67.0933Z" fill="black"/>
<path d="M160.713 66.5318C159.044 65.5549 157.75 64.1773 156.83 62.4078C155.909 60.6383 155.45 58.6144 155.45 56.3389C155.45 54.0634 155.909 52.0483 156.83 50.2934C157.75 48.5385 159.044 47.1697 160.713 46.1899C162.381 45.2101 164.295 44.7217 166.451 44.7217C169.011 44.7217 171.176 45.3915 172.944 46.731C174.712 48.0706 175.784 49.8751 176.158 52.1506L172.19 52.8847H172.018C171.758 51.5598 171.126 50.4806 170.118 49.647C169.11 48.8135 167.904 48.3952 166.495 48.3952C164.482 48.3952 162.857 49.1235 161.619 50.5771C160.383 52.0307 159.763 53.9523 159.763 56.3418C159.763 58.7314 160.383 60.6588 161.619 62.13C162.855 63.5982 164.479 64.3323 166.495 64.3323C167.991 64.3323 169.242 63.9082 170.25 63.0571C171.255 62.2089 171.904 61.0069 172.19 59.4509L176.33 60.2289C175.869 62.6477 174.755 64.5488 172.988 65.9293C171.22 67.3097 169.04 68.0029 166.451 68.0029C164.295 68.0029 162.381 67.5145 160.713 66.5347V66.5318Z" fill="black"/>
<path d="M179.825 36H183.965V48.4362C184.742 47.3423 185.733 46.4502 186.942 45.76C188.149 45.0697 189.473 44.7246 190.91 44.7246C193.382 44.7246 195.398 45.4383 196.95 46.8626C198.504 48.287 199.279 50.2086 199.279 52.6274V67.5701H195.095V53.5779C195.095 51.9664 194.647 50.6999 193.756 49.7786C192.865 48.8573 191.626 48.3981 190.045 48.3981C188.608 48.3981 187.328 48.9392 186.206 50.0185C185.084 51.0977 184.336 52.4314 183.962 54.0137V67.573H179.822V36H179.825Z" fill="black"/>
<path d="M208.258 66.4879C206.56 65.4818 205.236 64.0925 204.29 62.3201C203.34 60.5506 202.867 58.5559 202.867 56.3389C202.867 54.1219 203.34 52.1711 204.29 50.4016C205.239 48.6321 206.563 47.2428 208.258 46.2338C209.955 45.2277 211.866 44.7217 213.996 44.7217C216.126 44.7217 218.002 45.2247 219.711 46.2338C221.424 47.2428 222.759 48.6292 223.723 50.4016C224.687 52.1711 225.17 54.1512 225.17 56.3389C225.17 58.5266 224.687 60.5126 223.723 62.2996C222.759 64.0837 221.421 65.4818 219.711 66.4879C217.999 67.4969 216.094 68 213.996 68C211.898 68 209.955 67.4969 208.258 66.4879ZM217.532 63.294C218.566 62.6038 219.378 61.6532 219.969 60.4424C220.559 59.2344 220.854 57.8656 220.854 56.3389C220.854 54.8122 220.559 53.4463 219.969 52.2354C219.378 51.0275 218.56 50.0828 217.508 49.4072C216.459 48.7316 215.288 48.3923 213.993 48.3923C212.699 48.3923 211.492 48.7316 210.455 49.4072C209.421 50.0828 208.614 51.0275 208.038 52.2354C207.463 53.4434 207.176 54.8122 207.176 56.3389C207.176 57.8656 207.463 59.2315 208.038 60.4424C208.614 61.6503 209.418 62.6009 210.455 63.294C211.489 63.9843 212.67 64.3294 213.993 64.3294C215.317 64.3294 216.494 63.9843 217.532 63.294Z" fill="black"/>
<path d="M233.149 66.4879C231.452 65.4818 230.128 64.0925 229.181 62.3201C228.232 60.5506 227.758 58.5559 227.758 56.3389C227.758 54.1219 228.232 52.1711 229.181 50.4016C230.131 48.6321 231.454 47.2428 233.149 46.2338C234.847 45.2277 236.758 44.7217 238.888 44.7217C241.018 44.7217 242.894 45.2247 244.603 46.2338C246.315 47.2428 247.651 48.6292 248.615 50.4016C249.579 52.1711 250.061 54.1512 250.061 56.3389C250.061 58.5266 249.579 60.5126 248.615 62.2996C247.651 64.0837 246.312 65.4818 244.603 66.4879C242.891 67.4969 240.986 68 238.888 68C236.79 68 234.847 67.4969 233.149 66.4879ZM242.426 63.294C243.461 62.6038 244.273 61.6532 244.863 60.4424C245.453 59.2344 245.748 57.8656 245.748 56.3389C245.748 54.8122 245.453 53.4463 244.863 52.2354C244.273 51.0275 243.455 50.0828 242.403 49.4072C241.354 48.7316 240.182 48.3923 238.888 48.3923C237.593 48.3923 236.387 48.7316 235.349 49.4072C234.315 50.0828 233.509 51.0275 232.933 52.2354C232.357 53.4434 232.071 54.8122 232.071 56.3389C232.071 57.8656 232.357 59.2315 232.933 60.4424C233.509 61.6503 234.312 62.6009 235.349 63.294C236.384 63.9843 237.564 64.3294 238.888 64.3294C240.211 64.3294 241.389 63.9843 242.426 63.294Z" fill="black"/>
<path d="M253.86 67.5671V36H258V67.5671H253.86Z" fill="black"/>
</g>
<g clip-path="url(#clip1_2131_363)">
<path d="M0 31.2267L2.32139 29.0828L13.7148 0.641972H17.0886L28.6132 28.9514L30.9804 31.2237V31.567H21.9083L21.8656 31.2237L23.3542 29.0798L20.9017 22.8601H8.23926L5.82941 29.1216L7.27532 31.2237L7.23262 31.567H0V31.2237V31.2267ZM19.8066 20.0743L14.4591 6.60484L9.28862 20.0743H19.8066Z" fill="black"/>
<path d="M32.6033 31.2267L34.1376 29.2112V12.6961L32.6033 10.5074V10.164L38.6493 9.0921V13.8546C39.2319 12.3109 40.0738 11.0956 41.1689 10.2088C42.264 9.32201 43.5269 8.8801 44.9606 8.8801C45.6043 8.8801 46.1137 8.93683 46.495 9.05029L46.1869 13.3828C45.5433 13.1828 44.8874 13.0813 44.2163 13.0813C42.7277 13.0813 41.5136 13.5739 40.5802 14.5623C39.6437 15.5476 39.0031 16.742 38.6523 18.1454V29.1694L40.7114 31.2296V31.573H32.6033V31.2296V31.2267Z" fill="black"/>
<path d="M49.2982 30.3488C47.9835 29.247 47.3276 27.7958 47.3276 25.9953C47.3276 22.3913 49.9724 20.0773 55.2588 19.0471L61.7441 17.802V16.0015C61.7441 14.4876 61.3201 13.2992 60.472 12.4423C59.624 11.5853 58.5136 11.1554 57.1409 11.1554C55.6523 11.1554 54.4474 11.6271 53.5262 12.5707C52.6049 13.5142 52.1443 14.8728 52.1443 16.6465L47.7181 15.6611C48.0109 13.6874 49.0023 12.0661 50.6984 10.7941C52.3914 9.52207 54.5542 8.88607 57.1836 8.88607C59.987 8.88607 62.2016 9.59373 63.8214 11.0091C65.4443 12.4244 66.2526 14.404 66.2526 16.951V29.0469L67.787 31.2356V31.579H61.741V27.76C61.0394 29.1037 60.0694 30.1487 58.8278 30.8922C57.5863 31.6357 56.1465 32.009 54.5114 32.009C52.3487 32.009 50.6099 31.4596 49.2982 30.3577V30.3488ZM53.0442 28.0944C53.758 28.7513 54.7158 29.0798 55.9147 29.0798C57.3758 29.0798 58.6082 28.6438 59.6179 27.772C60.6245 26.9001 61.3323 25.7774 61.7441 24.4038V19.9011L56.7932 20.8864C53.578 21.6598 51.9735 23.2184 51.9735 25.5624C51.9735 26.5925 52.3304 27.4345 53.0472 28.0944H53.0442Z" fill="black"/>
<path d="M78 31.2266V31.57H70.4197V31.2266L71.9541 29.2112V3.60399L70.4197 1.41532V1.07194L76.4657 0V29.2112L78 31.2266Z" fill="black"/>
</g>
<rect x="106" y="20" width="13" height="13" fill="black"/>
<defs>
<clipPath id="clip0_2131_363">
<rect width="123" height="32" fill="white" transform="translate(135 36)"/>
</clipPath>
<clipPath id="clip1_2131_363">
<rect width="78" height="32" fill="white"/>
</clipPath>
</defs>
</svg>
